<svg width="67" height="67" viewBox="0 0 67 67" fill="none" xmlns="http://www.w3.org/2000/svg">
<circle cx="33.5" cy="33.5" r="33.5" fill="#B80013"/>
<path fill-rule="evenodd" clip-rule="evenodd" d="M35.5737 17.3451C35.8014 17.1241 36.1102 17 36.4322 17C36.7542 17 37.063 17.1241 37.2907 17.3451L45.4313 25.2472H48.5714C49.2155 25.2472 49.8332 25.4955 50.2887 25.9376C50.7441 26.3797 51 26.9793 51 27.6046V31.1407C51 31.7659 50.7441 32.3655 50.2887 32.8076C49.8332 33.2497 49.2155 33.4981 48.5714 33.4981H47.3571L45.2261 47.9762C45.1434 48.5379 44.8547 49.0518 44.413 49.4236C43.9714 49.7954 43.4064 50 42.8218 50H25.1782C24.5936 50 24.0286 49.7954 23.587 49.4236C23.1453 49.0518 22.8566 48.5379 22.7739 47.9762L20.6429 33.4981H19.4286C18.7845 33.4981 18.1668 33.2497 17.7113 32.8076C17.2559 32.3655 17 31.7659 17 31.1407V27.6046C17 26.9793 17.2559 26.3797 17.7113 25.9376C18.1668 25.4955 18.7845 25.2472 19.4286 25.2472H22.6586C22.6768 25.2271 22.695 25.2071 22.7156 25.1882L30.7943 17.3463C31.0233 17.1316 31.33 17.0128 31.6484 17.0155C31.9668 17.0181 32.2714 17.1421 32.4965 17.3606C32.7216 17.5792 32.8493 17.8748 32.8521 18.1839C32.8549 18.4929 32.7325 18.7907 32.5113 19.013L26.0889 25.2483H41.9961L35.5725 19.0118C35.3449 18.7908 35.217 18.491 35.217 18.1785C35.217 17.8659 35.3461 17.5661 35.5737 17.3451ZM36.4286 37.0342C36.4286 36.7216 36.5565 36.4218 36.7842 36.2008C37.0119 35.9797 37.3208 35.8555 37.6429 35.8555C37.9649 35.8555 38.2738 35.9797 38.5015 36.2008C38.7292 36.4218 38.8571 36.7216 38.8571 37.0342V44.1065C38.8571 44.4191 38.7292 44.7189 38.5015 44.9399C38.2738 45.161 37.9649 45.2852 37.6429 45.2852C37.3208 45.2852 37.0119 45.161 36.7842 44.9399C36.5565 44.7189 36.4286 44.4191 36.4286 44.1065V37.0342ZM30.3571 35.8555C30.0351 35.8555 29.7262 35.9797 29.4985 36.2008C29.2708 36.4218 29.1429 36.7216 29.1429 37.0342V44.1065C29.1429 44.4191 29.2708 44.7189 29.4985 44.9399C29.7262 45.161 30.0351 45.2852 30.3571 45.2852C30.6792 45.2852 30.988 45.161 31.2158 44.9399C31.4435 44.7189 31.5714 44.4191 31.5714 44.1065V37.0342C31.5714 36.7216 31.4435 36.4218 31.2158 36.2008C30.988 35.9797 30.6792 35.8555 30.3571 35.8555Z" fill="white"/>
</svg>
